<svg width="381" height="97" viewBox="0 0 381 97" fill="none" xmlns="http://www.w3.org/2000/svg">
<g clip-path="url(#clip0_193_47)">
<path d="M101.186 50.1968V44.475H114.105V88.1783H101.186V82.4566C99.8864 86.267 94.7628 88.9624 88.1805 88.9624C82.0272 88.9624 76.8178 86.7938 72.6502 82.4566C68.5685 78.0336 66.497 72.6549 66.497 66.3328C66.497 60.0107 68.5807 54.632 72.6502 50.2948C76.8178 45.8718 82.015 43.7031 88.1805 43.7031C94.775 43.7031 99.8864 46.3863 101.186 50.209V50.1968ZM98.5871 74.1251C100.842 71.9565 101.97 69.3591 101.97 66.3205C101.97 63.282 100.842 60.6846 98.5871 58.6017C96.4175 56.4331 93.7331 55.3916 90.5217 55.3916C87.3102 55.3916 84.7974 56.4331 82.6278 58.6017C80.4583 60.6846 79.4164 63.282 79.4164 66.3205C79.4164 69.3591 80.4583 71.9565 82.6278 74.1251C84.7974 76.208 87.396 77.2494 90.5217 77.2494C93.6473 77.2494 96.4175 76.208 98.5871 74.1251Z" fill="#27AAE1"/>
<path d="M122.71 88.1663V44.463H135.642V50.442C137.64 46.019 142.322 43.5073 148.304 43.5073C149.174 43.5073 150.302 43.5931 151.687 43.7646V55.9065C150.387 55.6492 148.916 55.4776 147.347 55.4776C139.968 55.4776 135.642 59.6434 135.642 66.8354V88.1663H122.71Z" fill="#27AAE1"/>
<path d="M154.714 66.2348C154.714 59.3858 156.884 53.9214 161.223 49.7557C165.648 45.5042 171.201 43.4336 177.881 43.4336C184.561 43.4336 189.771 45.6022 193.84 49.8537C197.922 54.1052 199.993 59.3001 199.993 65.5487C199.993 67.0189 199.908 68.5014 199.736 69.8001H167.646C167.903 75.0073 172.328 78.2909 179.18 78.2909C185.432 78.2909 190.629 76.9064 194.71 74.0394V85.3113C190.543 87.9945 185.174 89.2933 178.494 89.2933C171.384 89.2933 165.66 87.2104 161.235 83.1427C156.896 78.977 154.726 73.5125 154.726 66.6636V66.2348H154.714ZM186.976 61.3829C186.976 57.4868 182.992 54.191 177.869 54.191C175.184 54.191 172.831 54.8893 170.845 56.2738C168.847 57.6583 167.805 59.3981 167.719 61.3952H186.976V61.3829Z" fill="#27AAE1"/>
<path d="M210.964 88.1663V56.176H203.769V44.4752H210.964V43.2623C210.964 36.9402 212.704 32.4314 216.088 29.7359C218.6 27.5673 222.682 26.5259 228.149 26.5259C229.877 26.5259 231.618 26.6974 233.358 26.9547V37.6998C232.574 37.4425 231.275 37.271 229.46 37.271C225.293 37.271 223.479 38.7412 223.479 42.4781V44.4752H232.243V56.176H223.479V88.1663H210.988H210.964Z" fill="#0973B9"/>
<path d="M235.516 66.2348C235.516 59.3858 237.685 53.9214 242.024 49.7557C246.449 45.5042 252.002 43.4336 258.682 43.4336C265.363 43.4336 270.572 45.6022 274.642 49.8537C278.723 54.1052 280.795 59.3001 280.795 65.5487C280.795 67.0189 280.709 68.5014 280.537 69.8001H248.447C248.705 75.0073 253.13 78.2909 259.982 78.2909C266.233 78.2909 271.43 76.9064 275.512 74.0394V85.3113C271.344 87.9945 265.976 89.2933 259.295 89.2933C252.186 89.2933 246.462 87.2104 242.037 83.1427C237.698 78.977 235.528 73.5125 235.528 66.6636V66.2348H235.516ZM267.777 61.3829C267.777 57.4868 263.794 54.191 258.67 54.191C255.986 54.191 253.632 54.8893 251.647 56.2738C249.649 57.6583 248.607 59.3981 248.521 61.3952H267.777V61.3829Z" fill="#0973B9"/>
<path d="M284.448 66.2348C284.448 59.3858 286.617 53.9214 290.956 49.7557C295.381 45.5042 300.934 43.4336 307.614 43.4336C314.295 43.4336 319.492 45.6022 323.574 49.8537C327.655 54.1052 329.727 59.3001 329.727 65.5487C329.727 67.0189 329.641 68.5014 329.469 69.8001H297.379C297.637 75.0073 302.062 78.2909 308.914 78.2909C315.165 78.2909 320.362 76.9064 324.444 74.0394V85.3113C320.276 87.9945 314.908 89.2933 308.227 89.2933C301.118 89.2933 295.394 87.2104 290.969 83.1427C286.63 78.977 284.46 73.5125 284.46 66.6636V66.2348H284.448ZM316.722 61.3829C316.722 57.4868 312.726 54.191 307.614 54.191C304.93 54.191 302.577 54.8893 300.591 56.2738C298.593 57.6583 297.551 59.3981 297.465 61.3952H316.722V61.3829Z" fill="#0973B9"/>
<path d="M368.081 50.1969V27.7388H381V88.1662H368.081V82.4445C366.781 86.2549 361.658 88.9503 355.075 88.9503C348.922 88.9503 343.713 86.7817 339.545 82.4445C335.463 78.0215 333.392 72.6428 333.392 66.3207C333.392 59.9986 335.476 54.6199 339.545 50.2827C343.713 45.8597 348.91 43.691 355.075 43.691C361.67 43.691 366.781 46.3742 368.081 50.1969ZM365.482 74.1253C367.737 71.9567 368.865 69.3592 368.865 66.3207C368.865 63.2822 367.737 60.6847 365.482 58.6019C363.312 56.4332 360.628 55.3918 357.417 55.3918C354.205 55.3918 351.692 56.4332 349.523 58.6019C347.353 60.6847 346.311 63.2822 346.311 66.3207C346.311 69.3592 347.353 71.9567 349.523 74.1253C351.692 76.2081 354.291 77.2496 357.417 77.2496C360.542 77.2496 363.312 76.2081 365.482 74.1253Z" fill="#0973B9"/>
<path d="M10.4924 67.2029C22.4435 84.3926 43.8573 91.0945 62.8565 85.189C61.0914 82.4445 59.8656 79.455 59.1547 76.2572C55.8574 77.5191 52.2782 78.2175 48.5275 78.2175C32.1147 78.2175 18.803 64.9117 18.803 48.5061C18.803 32.1005 32.1147 18.7947 48.5275 18.7947C59.9637 18.7947 69.88 25.2516 74.8566 34.7102L91.5023 25.9867C91.1713 25.3496 90.8158 24.7248 90.4604 24.0999C90.3991 23.9896 90.3378 23.8916 90.2765 23.7814C90.0191 23.3403 89.7372 22.9115 89.4675 22.4704C89.3572 22.2989 89.2469 22.1273 89.1366 21.968C88.8669 21.5637 88.5972 21.1594 88.3153 20.7551C88.1927 20.5713 88.0579 20.3998 87.9353 20.216C87.6534 19.8239 87.3715 19.4319 87.0773 19.052C86.9425 18.8805 86.8199 18.7212 86.6851 18.5497C86.3786 18.1576 86.0722 17.7656 85.7535 17.3858C85.6922 17.3 85.6187 17.2265 85.5451 17.153C84.8342 16.3198 84.0987 15.5112 83.3388 14.727C83.2407 14.629 83.1426 14.5188 83.0446 14.4207C82.7382 14.1022 82.4195 13.8081 82.1008 13.5018C81.9046 13.3058 81.6963 13.1098 81.5001 12.926C81.1937 12.6442 80.8873 12.3746 80.5808 12.1051C80.3479 11.8968 80.115 11.7008 79.8821 11.4925C79.5757 11.2352 79.2693 10.9779 78.9628 10.7329C78.7054 10.5246 78.448 10.3285 78.1906 10.1325C77.8842 9.89971 77.5777 9.65467 77.2713 9.43413C76.9894 9.22584 76.6952 9.01756 76.401 8.82152C76.1068 8.61324 75.8127 8.40495 75.5062 8.19667C75.0159 7.86586 74.5134 7.5473 74.0108 7.241C73.6799 7.03271 73.3489 6.84893 73.0179 6.6529C72.6502 6.43236 72.2702 6.21182 71.9025 6.00354C71.6206 5.84426 71.3264 5.69723 71.0445 5.55021C70.6768 5.36643 70.3213 5.17039 69.9536 4.98661C69.6594 4.83959 69.3652 4.70481 69.071 4.57004C68.691 4.39851 68.3111 4.22698 67.9311 4.05545C67.6369 3.93293 67.3427 3.79816 67.0485 3.67563C66.644 3.50411 66.2273 3.34483 65.8228 3.18555C65.5531 3.07528 65.2712 2.97726 65.0015 2.87925C64.499 2.69547 63.9842 2.52394 63.4693 2.36466C63.2855 2.3034 63.1016 2.24214 62.9055 2.18088C62.2068 1.96034 61.4959 1.7643 60.785 1.58052C60.5643 1.51926 60.3437 1.48251 60.1231 1.42125C59.6082 1.29872 59.1057 1.1762 58.5909 1.06593C58.3089 1.00467 58.0393 0.955665 57.7574 0.906657C57.2916 0.820892 56.8258 0.735127 56.3477 0.649362C56.0536 0.600354 55.7594 0.563597 55.4652 0.514589C54.9872 0.441076 54.5214 0.392068 54.0433 0.330807C53.7491 0.294051 53.4672 0.269547 53.173 0.23279C52.6582 0.183782 52.1312 0.147025 51.6163 0.110269C51.3712 0.0980169 51.1138 0.0735127 50.8686 0.0612606C50.0964 0.0245042 49.3242 0 48.5397 0C47.7552 0 47.0198 0.0245042 46.2721 0.0612606C46.0392 0.0612606 45.8063 0.0857648 45.5734 0.0980169C45.0463 0.134773 44.507 0.17153 43.9799 0.220538C43.7348 0.245042 43.4774 0.269547 43.2322 0.294051C42.6806 0.355311 42.129 0.428824 41.5774 0.502337C41.3936 0.526841 41.1975 0.551345 41.0136 0.575849C40.2904 0.686118 39.5672 0.820892 38.8563 0.967917C38.6969 1.00467 38.5498 1.04143 38.3905 1.06593C37.8267 1.18846 37.2628 1.31098 36.7112 1.458C36.4783 1.51926 36.2332 1.58052 36.0003 1.64178C35.51 1.77656 35.0319 1.91133 34.5416 2.05836C34.3088 2.13187 34.0881 2.19313 33.8552 2.26664C33.2791 2.45042 32.703 2.64646 32.1269 2.85474C32.0166 2.8915 31.9063 2.92826 31.8082 2.96501C31.1463 3.21005 30.4844 3.46735 29.8225 3.74915C29.6141 3.83491 29.418 3.92068 29.2096 4.01869C28.7561 4.21473 28.2903 4.42301 27.8368 4.6313C27.6039 4.74157 27.371 4.85184 27.1504 4.96211C26.7091 5.18265 26.2678 5.40318 25.8266 5.63597C25.6304 5.74624 25.4221 5.84426 25.2259 5.95453C24.6131 6.28534 24.0124 6.6284 23.4118 6.99596C23.2893 7.06947 23.1667 7.15524 23.0441 7.22875C22.5661 7.5228 22.088 7.8291 21.6222 8.1354C21.4139 8.28243 21.1932 8.42946 20.9848 8.56423C20.6049 8.82152 20.2371 9.09107 19.8572 9.36062C19.6365 9.51989 19.4281 9.67917 19.2075 9.83845C18.8153 10.1448 18.423 10.4511 18.0308 10.7574C17.8714 10.8921 17.6998 11.0147 17.5405 11.1494C17.0134 11.5782 16.5109 12.0316 15.996 12.4849C15.8244 12.6442 15.6528 12.8157 15.469 12.975C15.1258 13.2935 14.7948 13.6121 14.4516 13.9429C14.2555 14.1389 14.0471 14.3472 13.851 14.5433C13.5445 14.8496 13.2381 15.1681 12.9439 15.4867C12.7601 15.6827 12.5639 15.891 12.3801 16.087C12.0001 16.5036 11.6324 16.9324 11.2769 17.3612C11.1175 17.5573 10.9582 17.7411 10.7989 17.9371C10.4434 18.3659 10.1002 18.807 9.75697 19.2603C9.58536 19.4809 9.42601 19.7137 9.25441 19.9464C9.00926 20.2895 8.75185 20.6326 8.51896 20.9879C8.34735 21.2329 8.17575 21.478 8.0164 21.723C7.77125 22.0906 7.53836 22.4581 7.30547 22.8379C7.15838 23.0585 7.02354 23.2913 6.87645 23.5118C6.53324 24.0877 6.20229 24.6635 5.87134 25.2516C5.74876 25.4722 5.63845 25.7049 5.51587 25.9255C5.30749 26.3298 5.09911 26.7341 4.89074 27.1384C4.7559 27.408 4.63333 27.6898 4.4985 27.9593C4.31463 28.3391 4.14303 28.719 3.98368 29.111C3.86111 29.3806 3.73853 29.6624 3.62821 29.9319C3.44435 30.3852 3.26049 30.8386 3.08888 31.3042C3.01534 31.5124 2.92954 31.7207 2.84373 31.929C0.637383 43.8013 2.99082 56.5068 10.4311 67.2029H10.4924Z" fill="url(#paint0_linear_193_47)"/>
<path d="M65.9944 89.2569C64.8054 87.9704 63.7635 86.6104 62.8565 85.1892C43.8696 91.0947 22.4557 84.3928 10.4924 67.2031C3.05211 56.507 0.698673 43.7893 2.90502 31.917C2.65987 32.5786 2.43924 33.2525 2.2186 33.9263C2.12054 34.2326 2.03474 34.5512 1.94894 34.8575C1.82636 35.2618 1.70379 35.6784 1.59347 36.095C1.50767 36.4258 1.43412 36.7566 1.34832 37.0874C1.25026 37.4917 1.1522 37.896 1.0664 38.3126C0.992853 38.6434 0.931566 38.9742 0.870278 39.3173C0.784476 39.7338 0.710931 40.1627 0.649643 40.5792C0.600613 40.91 0.539326 41.2286 0.502553 41.5594C0.441266 42.0127 0.379978 42.4538 0.330948 42.9071C0.294175 43.2134 0.257403 43.532 0.232888 43.8383C0.183858 44.3406 0.147085 44.8552 0.12257 45.3698C0.110313 45.6271 0.0857978 45.8967 0.0735403 46.1539C0.0367678 46.9258 0.0122528 47.71 0.0122528 48.4941C0.0122528 75.2772 21.7326 96.988 48.5275 96.988C56.0168 96.988 63.1016 95.2972 69.4265 92.2709C68.262 91.401 67.1466 90.4454 66.1047 89.3672C66.068 89.3304 66.0312 89.2937 65.9944 89.2569Z" fill="#FAAF40"/>
</g>
<defs>
<linearGradient id="paint0_linear_193_47" x1="15.6283" y1="85.1522" x2="67.0283" y2="2.85893" gradientUnits="userSpaceOnUse">
<stop stop-color="#0973B9"/>
<stop offset="0.37" stop-color="#178DCC"/>
<stop offset="0.75" stop-color="#22A2DB"/>
<stop offset="1" stop-color="#27AAE1"/>
</linearGradient>
<clipPath id="clip0_193_47">
<rect width="381" height="97" fill="white"/>
</clipPath>
</defs>
</svg>
