<svg width="113" height="114" viewBox="0 0 113 114" fill="none" xmlns="http://www.w3.org/2000/svg">
<g clip-path="url(#clip0_1_2504)">
<path d="M113 57.0993C113.01 88.5091 87.6476 114.065 56.6824 114C25.2295 113.936 3.39031 89.7147 0.4436 64.1642C-1.50773 47.2462 2.99117 32.1938 14.0537 19.4334C25.1999 6.56882 39.6033 -0.0296673 56.579 0.000100269C87.3765 0.0546742 113.182 25.1884 113 57.0993Z" fill="#27AAE1"/>
<path d="M64.4285 78.3879C59.4467 78.3879 54.46 78.3929 49.4781 78.3879C47.6845 78.3879 47.0291 77.8025 47.0439 76.0016C47.108 68.1727 46.6891 60.3388 47.2607 52.5248C47.6303 47.504 49.6013 42.9992 52.686 39.0153C54.7704 36.3213 56.9533 33.7068 59.3925 31.3204C60.1809 30.5514 60.5751 29.6782 60.5603 28.557C60.5406 27.2174 60.6688 25.8729 60.6392 24.5383C60.5998 22.8664 61.1467 21.4772 62.7039 20.8422C64.33 20.1823 65.9216 20.5197 67.2373 21.76C68.5234 22.9706 69.0211 24.5879 69.4153 26.2301C70.4353 30.4522 69.6469 34.4559 67.9222 38.3406C67.3457 39.6404 66.8184 40.9701 66.1729 42.2302C65.7491 43.0587 66.0793 43.3515 66.8086 43.4656C67.188 43.5251 67.5822 43.5003 67.9665 43.5003C72.4359 43.4904 76.9052 43.4755 81.3696 43.4705C83.799 43.4705 85.4596 44.6364 86.041 46.74C86.6865 49.0916 85.7552 51.7906 83.7891 52.8424C82.9071 53.3186 82.9317 53.5171 83.7053 54.0628C85.3364 55.2139 86.4254 56.6774 86.0952 58.8653C85.8439 60.5125 85.0309 61.6536 83.4195 62.1745C83.114 62.2737 82.6459 62.244 82.5868 62.6458C82.5276 63.0675 83.0105 63.132 83.2668 63.3255C85.4103 64.9379 85.701 69.2344 82.5523 70.5442C81.9462 70.7972 81.6752 70.946 82.3158 71.5662C83.7004 72.9057 83.7152 74.6124 83.0648 76.2546C82.4389 77.8471 81.0198 78.3334 79.3838 78.3284C74.402 78.3086 69.4153 78.3234 64.4334 78.3234V78.3929L64.4285 78.3879Z" fill="white"/>
<path d="M41.0125 82.8632C36.893 82.8781 32.7735 82.8831 28.6491 82.9029C27.4222 82.9079 26.8506 82.2183 26.7224 81.0921C26.6534 80.4967 26.6929 79.8815 26.6929 79.2762C26.6929 70.5891 26.6929 61.9019 26.7077 53.2097C26.7077 51.0665 27.2448 50.5455 29.3883 50.5406C33.0791 50.5356 36.7748 50.5257 40.4655 50.5406C41.9438 50.5455 42.7027 51.1955 42.7076 52.6144C42.7175 61.7332 42.6879 70.852 42.6682 79.9708C42.6682 80.0105 42.6435 80.0552 42.6337 80.0948C42.4021 80.1693 42.4317 80.2536 42.6238 80.3429C42.6978 81.3252 42.6682 82.258 41.5447 82.6846C41.5102 82.4118 41.4166 82.1091 41.1012 82.2034C40.7366 82.3125 41.0667 82.635 41.0174 82.8533L41.0125 82.8632Z" fill="white"/>
</g>
<defs>
<clipPath id="clip0_1_2504">
<rect width="113" height="114" fill="white"/>
</clipPath>
</defs>
</svg>
