<svg width="251" height="64" viewBox="0 0 251 64" fill="none" xmlns="http://www.w3.org/2000/svg">
<g clip-path="url(#clip0_5_2359)">
<path d="M66.6604 33.1196V29.3444H75.1716V58.1796H66.6604V54.4044C65.8044 56.9185 62.429 58.697 58.0927 58.697C54.0389 58.697 50.607 57.2661 47.8614 54.4044C45.1724 51.4862 43.8077 47.9373 43.8077 43.7661C43.8077 39.5948 45.1805 36.046 47.8614 33.1843C50.607 30.266 54.0309 28.8351 58.0927 28.8351C62.4371 28.8351 65.8044 30.6055 66.6604 33.1277V33.1196ZM64.9485 48.9074C66.4343 47.4766 67.1772 45.7628 67.1772 43.758C67.1772 41.7532 66.4343 40.0394 64.9485 38.6651C63.5192 37.2343 61.7507 36.5472 59.635 36.5472C57.5193 36.5472 55.8639 37.2343 54.4346 38.6651C53.0053 40.0394 52.3189 41.7532 52.3189 43.758C52.3189 45.7628 53.0053 47.4766 54.4346 48.9074C55.8639 50.2817 57.5758 50.9688 59.635 50.9688C61.6942 50.9688 63.5192 50.2817 64.9485 48.9074Z" fill="#27AAE1"/>
<path d="M80.8404 58.1715V29.3364H89.3597V33.2813C90.6759 30.363 93.7606 28.7058 97.7013 28.7058C98.2746 28.7058 99.0175 28.7624 99.93 28.8756V36.8867C99.0741 36.7169 98.105 36.6038 97.0714 36.6038C92.2102 36.6038 89.3597 39.3523 89.3597 44.0975V58.1715H80.8404Z" fill="#27AAE1"/>
<path d="M101.925 43.7014C101.925 39.1825 103.354 35.5771 106.212 32.8286C109.128 30.0235 112.786 28.6573 117.187 28.6573C121.588 28.6573 125.02 30.0882 127.7 32.8933C130.39 35.6984 131.754 39.126 131.754 43.2487C131.754 44.2188 131.698 45.1969 131.585 46.0538H110.444C110.613 49.4895 113.529 51.656 118.043 51.656C122.161 51.656 125.585 50.7425 128.274 48.8509V56.288C125.528 58.0584 121.991 58.9153 117.59 58.9153C112.907 58.9153 109.136 57.541 106.221 54.8572C103.362 52.1087 101.933 48.5033 101.933 43.9844V43.7014H101.925ZM123.178 40.5002C123.178 37.9295 120.554 35.755 117.179 35.755C115.41 35.755 113.86 36.2158 112.551 37.1292C111.235 38.0427 110.549 39.1906 110.492 40.5083H123.178V40.5002Z" fill="#27AAE1"/>
<path d="M138.981 58.1715V37.0646H134.241V29.3445H138.981V28.5442C138.981 24.3729 140.128 21.398 142.357 19.6196C144.012 18.1887 146.701 17.5016 150.303 17.5016C151.441 17.5016 152.588 17.6148 153.735 17.7845V24.8741C153.218 24.7043 152.362 24.5911 151.167 24.5911C148.421 24.5911 147.226 25.5612 147.226 28.0268V29.3445H153V37.0646H147.226V58.1715H138.998H138.981Z" fill="#0973B9"/>
<path d="M155.156 43.7014C155.156 39.1825 156.585 35.5771 159.444 32.8286C162.359 30.0235 166.017 28.6573 170.418 28.6573C174.819 28.6573 178.251 30.0882 180.932 32.8933C183.621 35.6984 184.986 39.126 184.986 43.2487C184.986 44.2188 184.929 45.1969 184.816 46.0538H163.675C163.845 49.4895 166.76 51.656 171.274 51.656C175.392 51.656 178.816 50.7425 181.505 48.8509V56.288C178.76 58.0584 175.223 58.9153 170.822 58.9153C166.138 58.9153 162.367 57.541 159.452 54.8572C156.593 52.1087 155.164 48.5033 155.164 43.9844V43.7014H155.156ZM176.41 40.5002C176.41 37.9295 173.785 35.755 170.41 35.755C168.642 35.755 167.091 36.2158 165.783 37.1292C164.467 38.0427 163.78 39.1906 163.724 40.5083H176.41V40.5002Z" fill="#0973B9"/>
<path d="M187.392 43.7014C187.392 39.1825 188.821 35.5771 191.68 32.8286C194.595 30.0235 198.253 28.6573 202.654 28.6573C207.055 28.6573 210.479 30.0882 213.168 32.8933C215.857 35.6984 217.222 39.126 217.222 43.2487C217.222 44.2188 217.165 45.1969 217.052 46.0538H195.911C196.081 49.4895 198.996 51.656 203.51 51.656C207.628 51.656 211.052 50.7425 213.741 48.8509V56.288C210.996 58.0584 207.459 58.9153 203.058 58.9153C198.374 58.9153 194.603 57.541 191.688 54.8572C188.829 52.1087 187.4 48.5033 187.4 43.9844V43.7014H187.392ZM208.654 40.5002C208.654 37.9295 206.021 35.755 202.654 35.755C200.886 35.755 199.335 36.2158 198.027 37.1292C196.711 38.0427 196.024 39.1906 195.968 40.5083H208.654V40.5002Z" fill="#0973B9"/>
<path d="M242.489 33.1196V18.3019H251V58.1715H242.489V54.3964C241.633 56.9104 238.257 58.6889 233.921 58.6889C229.867 58.6889 226.435 57.2581 223.69 54.3964C221.001 51.4781 219.636 47.9293 219.636 43.758C219.636 39.5867 221.009 36.0379 223.69 33.1762C226.435 30.2579 229.859 28.8271 233.921 28.8271C238.265 28.8271 241.633 30.5974 242.489 33.1196ZM240.777 48.9074C242.263 47.4766 243.006 45.7628 243.006 43.758C243.006 41.7532 242.263 40.0394 240.777 38.6652C239.348 37.2343 237.579 36.5472 235.463 36.5472C233.348 36.5472 231.692 37.2343 230.263 38.6652C228.834 40.0394 228.147 41.7532 228.147 43.758C228.147 45.7628 228.834 47.4766 230.263 48.9074C231.692 50.2817 233.404 50.9688 235.463 50.9688C237.523 50.9688 239.348 50.2817 240.777 48.9074Z" fill="#0973B9"/>
<path d="M6.91234 44.34C14.7856 55.6817 28.8929 60.1036 41.4094 56.2071C40.2466 54.3964 39.4391 52.4239 38.9707 50.314C36.7985 51.1466 34.4405 51.6074 31.9695 51.6074C21.1569 51.6074 12.3873 42.8283 12.3873 32.004C12.3873 21.1797 21.1569 12.4007 31.9695 12.4007C39.5037 12.4007 46.0365 16.6609 49.315 22.9016L60.281 17.1459C60.063 16.7255 59.8288 16.3133 59.5946 15.901C59.5543 15.8282 59.5139 15.7635 59.4735 15.6908C59.3039 15.3998 59.1182 15.1168 58.9406 14.8258C58.8679 14.7126 58.7952 14.5995 58.7225 14.4944C58.5449 14.2276 58.3672 13.9608 58.1815 13.6941C58.1007 13.5728 58.0119 13.4596 57.9312 13.3384C57.7454 13.0797 57.5597 12.821 57.3659 12.5704C57.2771 12.4572 57.1963 12.3522 57.1075 12.239C56.9056 11.9803 56.7037 11.7216 56.4938 11.471C56.4534 11.4144 56.405 11.3659 56.3565 11.3174C55.8881 10.7677 55.4036 10.2342 54.903 9.71681C54.8384 9.65214 54.7738 9.57939 54.7092 9.51472C54.5073 9.30453 54.2973 9.11052 54.0874 8.90843C53.9582 8.77908 53.8209 8.64974 53.6917 8.52848C53.4898 8.34255 53.2879 8.16471 53.0861 7.98686C52.9326 7.84944 52.7792 7.7201 52.6258 7.58267C52.4239 7.41291 52.222 7.24315 52.0201 7.08147C51.8506 6.94405 51.681 6.8147 51.5114 6.68536C51.3095 6.53177 51.1077 6.37009 50.9058 6.22458C50.72 6.08715 50.5262 5.94973 50.3324 5.82039C50.1386 5.68296 49.9448 5.54554 49.743 5.40811C49.4199 5.18984 49.0889 4.97966 48.7578 4.77757C48.5398 4.64014 48.3217 4.51888 48.1037 4.38954C47.8614 4.24403 47.6111 4.09852 47.3689 3.9611C47.1831 3.85601 46.9893 3.759 46.8036 3.66199C46.5613 3.54074 46.3272 3.41139 46.0849 3.29014C45.8911 3.19313 45.6973 3.10421 45.5035 3.01528C45.2532 2.90211 45.0028 2.78894 44.7525 2.67576C44.5587 2.59492 44.3649 2.506 44.1711 2.42516C43.9046 2.31199 43.6301 2.2069 43.3636 2.10181C43.1859 2.02905 43.0002 1.96438 42.8225 1.89971C42.4915 1.77845 42.1523 1.66528 41.8132 1.56019C41.692 1.51977 41.5709 1.47935 41.4417 1.43893C40.9814 1.29342 40.5131 1.16408 40.0447 1.04282C39.8993 1.0024 39.754 0.978148 39.6086 0.937729C39.2695 0.85689 38.9384 0.776052 38.5992 0.703297C38.4135 0.662877 38.2359 0.630542 38.0501 0.598206C37.7433 0.541619 37.4364 0.485032 37.1215 0.428445C36.9277 0.39611 36.7339 0.371858 36.5401 0.339523C36.2251 0.291019 35.9183 0.258684 35.6034 0.218265C35.4096 0.194013 35.2238 0.177845 35.03 0.153594C34.6909 0.121258 34.3436 0.0970064 34.0045 0.0727548C33.843 0.064671 33.6734 0.0485032 33.5119 0.0404194C33.0032 0.0161677 32.4944 0 31.9776 0C31.4608 0 30.9763 0.0161677 30.4837 0.0404194C30.3303 0.0404194 30.1769 0.0565871 30.0234 0.064671C29.6762 0.0889226 29.3209 0.113174 28.9737 0.14551C28.8122 0.161677 28.6426 0.177845 28.4811 0.194013C28.1177 0.234432 27.7543 0.282935 27.3909 0.331439C27.2698 0.347606 27.1406 0.363774 27.0195 0.379942C26.543 0.452697 26.0666 0.541619 25.5982 0.638626C25.4933 0.662877 25.3964 0.687129 25.2914 0.703297C24.9199 0.784135 24.5485 0.864974 24.1851 0.961981C24.0317 1.0024 23.8702 1.04282 23.7167 1.08324C23.3937 1.17216 23.0788 1.26108 22.7558 1.35809C22.6024 1.40659 22.457 1.44701 22.3036 1.49552C21.924 1.61677 21.5445 1.74612 21.165 1.88354C21.0923 1.90779 21.0196 1.93205 20.955 1.9563C20.519 2.11797 20.0829 2.28774 19.6469 2.47366C19.5096 2.53025 19.3804 2.58684 19.2431 2.65151C18.9443 2.78085 18.6375 2.91828 18.3387 3.0557C18.1853 3.12846 18.0318 3.20121 17.8865 3.27397C17.5958 3.41948 17.3051 3.56499 17.0144 3.71858C16.8852 3.79134 16.7479 3.85601 16.6187 3.92876C16.2149 4.14703 15.8192 4.37337 15.4236 4.61589C15.3428 4.66439 15.262 4.72098 15.1813 4.76948C14.8664 4.9635 14.5514 5.16559 14.2446 5.36769C14.1073 5.4647 13.9619 5.5617 13.8247 5.65063C13.5743 5.82039 13.3321 5.99823 13.0818 6.17608C12.9364 6.28117 12.7991 6.38626 12.6538 6.49135C12.3954 6.69344 12.137 6.89554 11.8786 7.09764C11.7736 7.18656 11.6605 7.2674 11.5556 7.35632C11.2083 7.63926 10.8772 7.93836 10.5381 8.23746C10.425 8.34255 10.312 8.45573 10.1909 8.56082C9.96475 8.771 9.74672 8.98118 9.52061 9.19944C9.39141 9.32879 9.25413 9.46621 9.12493 9.59555C8.92305 9.79765 8.72117 10.0078 8.52737 10.218C8.40624 10.3474 8.27704 10.4848 8.15591 10.6141C7.90558 10.889 7.66333 11.1719 7.42915 11.4548C7.32417 11.5842 7.21919 11.7054 7.11422 11.8348C6.88004 12.1177 6.65393 12.4087 6.42783 12.7078C6.31478 12.8534 6.2098 13.0069 6.09675 13.1605C5.93524 13.3869 5.76567 13.6132 5.61224 13.8477C5.49919 14.0093 5.38613 14.171 5.28116 14.3327C5.11965 14.5752 4.96623 14.8177 4.8128 15.0683C4.7159 15.2138 4.62707 15.3674 4.53017 15.5129C4.30406 15.8929 4.08603 16.2728 3.86801 16.6609C3.78725 16.8064 3.71458 16.96 3.63383 17.1055C3.49655 17.3722 3.35927 17.639 3.22199 17.9058C3.13317 18.0836 3.05241 18.2695 2.96359 18.4474C2.84246 18.698 2.72941 18.9486 2.62443 19.2073C2.54368 19.3851 2.46293 19.5711 2.39025 19.7489C2.26912 20.048 2.148 20.3471 2.03495 20.6543C1.98649 20.7917 1.92997 20.9291 1.87344 21.0666C0.419914 28.8998 1.97034 37.2828 6.87196 44.34H6.91234Z" fill="url(#paint0_linear_5_2359)"/>
<path d="M43.4766 58.891C42.6934 58.0422 42.007 57.1449 41.4094 56.2071C28.901 60.1036 14.7937 55.6817 6.91234 44.34C2.01073 37.2828 0.460296 28.8917 1.91382 21.0585C1.75232 21.495 1.60697 21.9396 1.46161 22.3842C1.39701 22.5863 1.34049 22.7965 1.28396 22.9986C1.20321 23.2654 1.12246 23.5402 1.04978 23.8151C0.993256 24.0333 0.944805 24.2516 0.888279 24.4699C0.823678 24.7366 0.759077 25.0034 0.70255 25.2783C0.6541 25.4965 0.613724 25.7148 0.573348 25.9411C0.516822 26.216 0.468371 26.4989 0.427995 26.7738C0.395695 26.992 0.355319 27.2022 0.331093 27.4205C0.290718 27.7196 0.250342 28.0106 0.218041 28.3097C0.193816 28.5118 0.16959 28.722 0.15344 28.9241C0.121139 29.2555 0.0969139 29.595 0.0807635 29.9346C0.0726884 30.1043 0.0565381 30.2822 0.0484629 30.4519C0.0242375 30.9612 0.00808716 31.4786 0.00808716 31.9959C0.00808716 49.6673 14.3173 63.9919 31.9695 63.9919C36.9035 63.9919 41.5709 62.8763 45.7377 60.8796C44.9705 60.3057 44.2357 59.6751 43.5493 58.9637C43.5251 58.9395 43.5009 58.9152 43.4766 58.891Z" fill="#FAAF40"/>
</g>
<defs>
<linearGradient id="paint0_linear_5_2359" x1="10.2958" y1="56.1829" x2="44.2318" y2="1.93261" gradientUnits="userSpaceOnUse">
<stop stop-color="#0973B9"/>
<stop offset="0.37" stop-color="#178DCC"/>
<stop offset="0.75" stop-color="#22A2DB"/>
<stop offset="1" stop-color="#27AAE1"/>
</linearGradient>
<clipPath id="clip0_5_2359">
<rect width="251" height="64" fill="white"/>
</clipPath>
</defs>
</svg>
