<svg width="264" height="34" viewBox="0 0 264 34" fill="none" xmlns="http://www.w3.org/2000/svg">
<path d="M246.006 28.8017L236.281 33.849C235.334 34.3455 234.219 33.5457 234.386 32.4976L236.253 21.796L228.395 14.2112C227.615 13.4665 228.061 12.1702 229.119 12.0323L239.987 10.4602L244.836 0.724007C245.31 -0.241336 246.675 -0.241336 247.177 0.724007L252.025 10.4602L262.893 12.0323C263.952 12.1978 264.37 13.4941 263.617 14.2112L255.759 21.796L257.626 32.4976C257.821 33.5457 256.707 34.3455 255.731 33.849L246.006 28.8017Z" fill="#FBB040"/>
<path d="M74.506 28.8017L65.051 33.849C64.1298 34.3455 63.0462 33.5457 63.2087 32.4976L65.0239 21.796L57.384 14.2112C56.6254 13.4665 57.0589 12.1702 58.0884 12.0323L68.6542 10.4602L73.3682 0.724007C73.8287 -0.241336 75.1562 -0.241336 75.6439 0.724007L80.3578 10.4602L90.9236 12.0323C91.9531 12.1978 92.3595 13.4941 91.628 14.2112L83.9881 21.796L85.8033 32.4976C85.9929 33.5457 84.9093 34.3455 83.9611 33.849L74.506 28.8017Z" fill="#FBB040"/>
<path d="M17.506 28.8017L8.05097 33.849C7.12985 34.3455 6.04618 33.5457 6.20873 32.4976L8.02388 21.796L0.383985 14.2112C-0.374586 13.4665 0.0588839 12.1702 1.08837 12.0323L11.6542 10.4602L16.3682 0.724007C16.8287 -0.241336 18.1562 -0.241336 18.6439 0.724007L23.3578 10.4602L33.9236 12.0323C34.9531 12.1978 35.3595 13.4941 34.628 14.2112L26.9881 21.796L28.8033 32.4976C28.9929 33.5457 27.9093 34.3455 26.9611 33.849L17.506 28.8017Z" fill="#FBB040"/>
<path d="M189.006 28.8017L179.281 33.849C178.334 34.3455 177.219 33.5457 177.386 32.4976L179.253 21.796L171.395 14.2112C170.615 13.4665 171.061 12.1702 172.119 12.0323L182.987 10.4602L187.836 0.724007C188.31 -0.241336 189.675 -0.241336 190.177 0.724007L195.025 10.4602L205.893 12.0323C206.952 12.1978 207.37 13.4941 206.617 14.2112L198.759 21.796L200.626 32.4976C200.821 33.5457 199.707 34.3455 198.731 33.849L189.006 28.8017Z" fill="#FBB040"/>
<path d="M132.006 28.8017L122.281 33.849C121.334 34.3455 120.219 33.5457 120.386 32.4976L122.253 21.796L114.395 14.2112C113.615 13.4665 114.061 12.1702 115.119 12.0323L125.987 10.4602L130.836 0.724007C131.31 -0.241336 132.675 -0.241336 133.177 0.724007L138.025 10.4602L148.893 12.0323C149.952 12.1978 150.37 13.4941 149.617 14.2112L141.759 21.796L143.626 32.4976C143.821 33.5457 142.707 34.3455 141.731 33.849L132.006 28.8017Z" fill="#FBB040"/>
</svg>
